<svg width="16" height="16" viewBox="0 0 16 16" fill="none" xmlns="http://www.w3.org/2000/svg">
<path d="M8.00001 3.33333V9.03333C7.37334 8.67333 6.60001 8.53333 5.78001 8.82C4.88667 9.14 4.20001 9.93333 4.04001 10.8667C3.96604 11.2866 3.99368 11.7182 4.12063 12.1253C4.24758 12.5324 4.47014 12.9032 4.7697 13.2066C5.06927 13.5101 5.43713 13.7375 5.84254 13.8697C6.24795 14.0019 6.67912 14.0352 7.10001 13.9667C8.40667 13.76 9.33334 12.56 9.33334 11.2333V4.66667H10.6667C11.4 4.66667 12 4.06667 12 3.33333C12 2.6 11.4 2 10.6667 2H9.33334C8.60001 2 8.00001 2.6 8.00001 3.33333Z" fill="#842143"/>
</svg>
