<svg width="1349" height="382" viewBox="0 0 1349 382" fill="none" xmlns="http://www.w3.org/2000/svg">
<path d="M0.0340936 11.3636H52.5909L176.17 313.21H180.432L304.011 11.3636H356.568V375H315.375V98.7216H311.824L198.188 375H158.415L44.7784 98.7216H41.2273V375H0.0340936V11.3636ZM439.176 375V102.273H481.08V375H439.176ZM460.483 56.8182C452.316 56.8182 445.273 54.0365 439.354 48.473C433.554 42.9096 430.654 36.2216 430.654 28.4091C430.654 20.5966 433.554 13.9086 439.354 8.34516C445.273 2.78172 452.316 0 460.483 0C468.651 0 475.635 2.78172 481.435 8.34516C487.354 13.9086 490.313 20.5966 490.313 28.4091C490.313 36.2216 487.354 42.9096 481.435 48.473C475.635 54.0365 468.651 56.8182 460.483 56.8182ZM599.732 210.938V375H557.829V102.273H598.312V144.886H601.863C608.255 131.037 617.961 119.91 630.982 111.506C644.003 102.983 660.812 98.7216 681.408 98.7216C699.874 98.7216 716.032 102.509 729.881 110.085C743.731 117.543 754.503 128.906 762.197 144.176C769.891 159.328 773.738 178.504 773.738 201.705V375H731.835V204.545C731.835 183.12 726.271 166.43 715.144 154.474C704.017 142.401 688.747 136.364 669.335 136.364C655.959 136.364 644.003 139.264 633.468 145.064C623.051 150.864 614.825 159.328 608.788 170.455C602.751 181.581 599.732 195.076 599.732 210.938ZM892.213 210.938V375H850.309V102.273H890.792V144.886H894.343C900.735 131.037 910.442 119.91 923.463 111.506C936.484 102.983 953.292 98.7216 973.889 98.7216C992.355 98.7216 1008.51 102.509 1022.36 110.085C1036.21 117.543 1046.98 128.906 1054.68 144.176C1062.37 159.328 1066.22 178.504 1066.22 201.705V375H1024.31V204.545C1024.31 183.12 1018.75 166.43 1007.62 154.474C996.498 142.401 981.228 136.364 961.815 136.364C948.439 136.364 936.484 139.264 925.949 145.064C915.532 150.864 907.305 159.328 901.268 170.455C895.231 181.581 892.213 195.076 892.213 210.938ZM1223.05 381.392C1205.76 381.392 1190.08 378.137 1175.99 371.626C1161.91 364.998 1150.72 355.469 1142.43 343.04C1134.15 330.492 1130.01 315.341 1130.01 297.585C1130.01 281.96 1133.08 269.295 1139.24 259.588C1145.39 249.763 1153.62 242.069 1163.92 236.506C1174.22 230.942 1185.58 226.799 1198.01 224.077C1210.56 221.236 1223.16 218.987 1235.83 217.33C1252.4 215.199 1265.84 213.601 1276.13 212.536C1286.55 211.352 1294.13 209.399 1298.86 206.676C1303.72 203.954 1306.14 199.219 1306.14 192.472V191.051C1306.14 173.532 1301.35 159.92 1291.76 150.213C1282.29 140.507 1267.91 135.653 1248.61 135.653C1228.61 135.653 1212.92 140.033 1201.56 148.793C1190.2 157.552 1182.21 166.903 1177.59 176.847L1137.82 162.642C1144.92 146.07 1154.39 133.168 1166.23 123.935C1178.18 114.583 1191.2 108.073 1205.29 104.403C1219.49 100.616 1233.46 98.7216 1247.19 98.7216C1255.95 98.7216 1266.01 99.7869 1277.38 101.918C1288.86 103.93 1299.93 108.132 1310.58 114.524C1321.35 120.916 1330.29 130.563 1337.39 143.466C1344.49 156.368 1348.05 173.651 1348.05 195.312V375H1306.14V338.068H1304.01C1301.17 343.987 1296.44 350.32 1289.81 357.067C1283.18 363.814 1274.36 369.555 1263.35 374.29C1252.34 379.025 1238.91 381.392 1223.05 381.392ZM1229.44 343.75C1246.01 343.75 1259.98 340.495 1271.34 333.984C1282.82 327.474 1291.46 319.07 1297.26 308.771C1303.18 298.473 1306.14 287.642 1306.14 276.278V237.926C1304.37 240.057 1300.46 242.01 1294.42 243.786C1288.5 245.443 1281.64 246.922 1273.83 248.224C1266.13 249.408 1258.62 250.473 1251.28 251.42C1244.06 252.249 1238.2 252.959 1233.7 253.551C1222.81 254.972 1212.63 257.28 1203.16 260.476C1193.81 263.554 1186.23 268.229 1180.43 274.503C1174.75 280.658 1171.91 289.062 1171.91 299.716C1171.91 314.276 1177.29 325.284 1188.07 332.741C1198.96 340.08 1212.75 343.75 1229.44 343.75Z" fill="url(#paint0_radial_401_18)"/>
<defs>
<radialGradient id="paint0_radial_401_18" cx="0" cy="0" r="1" gradientUnits="userSpaceOnUse" gradientTransform="translate(671.5 193.5) rotate(90) scale(302.5 715.5)">
<stop stop-color="#F56C88"/>
<stop offset="0.473958" stop-color="#D778AA"/>
<stop offset="1" stop-color="#EBCB80"/>
</radialGradient>
</defs>
</svg>
