<svg width="189" height="48" viewBox="0 0 189 48" fill="none" xmlns="http://www.w3.org/2000/svg">
<path d="M0.392188 47H15.0922V45.2L8.25219 44.48H7.05219L0.392188 45.2V47ZM0.512188 5.18L8.19219 5.84H8.73219V3.32H0.512188V5.18ZM6.39219 47H8.79219V23.78L8.37219 3.32H6.51219L6.39219 47ZM24.4522 47H26.4322L42.3922 6.86L43.0522 5.3H43.8322V3.32H41.4922L26.5522 40.82L26.1922 41.6H27.4522L11.9722 3.32H7.05219V5.3H7.41219L24.4522 47ZM35.6122 47H53.4322V45.2L45.0322 44.48H43.7722L35.6122 45.2V47ZM41.6122 47H47.1922C47.0122 40.4 47.0122 33.62 47.0122 26.84V23.54C47.0122 16.76 47.0122 9.98 47.1922 3.32H42.0322L41.7922 27.5C41.7322 33.62 41.7922 40.34 41.6122 47ZM44.3722 5.84H45.0322L53.2522 5.18V3.32H44.3722V5.84ZM59.0488 47H73.8688V45.38L67.5088 44.72H65.6488L59.0488 45.38V47ZM64.0288 47H69.3088C69.1888 44.12 69.1288 37.4 69.1288 33.32V24.2L69.2488 15.86L68.5288 15.32L58.6888 17.72V19.28L64.0288 19.52C64.1488 22.52 64.2688 25.64 64.2688 29.72V33.32C64.2688 37.4 64.1488 44.12 64.0288 47ZM66.1888 7.7C68.1088 7.7 69.7288 6.38 69.7288 4.34C69.7288 2.42 68.1088 0.979999 66.1888 0.979999C64.2688 0.979999 62.7688 2.42 62.7688 4.34C62.7688 6.38 64.2688 7.7 66.1888 7.7ZM78.8506 47H93.5506V45.38L87.3106 44.72H85.3906L78.8506 45.38V47ZM83.7706 47H89.1106C88.9906 44.12 88.9306 37.4 88.9306 33.32V22.82L88.5106 15.86L87.7306 15.32L78.4906 17.78V19.28L83.7706 19.58C83.9506 22.58 84.0106 25.58 84.0106 29.66V33.32C84.0106 37.4 83.9506 44.12 83.7706 47ZM99.2506 47H113.951V45.38L107.711 44.72H105.731L99.2506 45.38V47ZM104.171 47H109.451C109.331 44.12 109.211 37.52 109.211 33.32V26.48C109.211 18.38 106.091 15.2 100.871 15.2C96.6706 15.2 92.3506 17.3 87.9706 22.7H87.3706L87.9106 24.68C92.2306 19.88 96.1306 18.44 98.8306 18.44C102.311 18.44 104.351 20.48 104.351 26.36V33.32C104.351 37.52 104.291 44.12 104.171 47ZM118.519 47H133.219V45.38L126.979 44.72H125.059L118.519 45.38V47ZM123.439 47H128.779C128.659 44.12 128.599 37.4 128.599 33.32V22.82L128.179 15.86L127.399 15.32L118.159 17.78V19.28L123.439 19.58C123.619 22.58 123.679 25.58 123.679 29.66V33.32C123.679 37.4 123.619 44.12 123.439 47ZM138.919 47H153.619V45.38L147.379 44.72H145.399L138.919 45.38V47ZM143.839 47H149.119C148.999 44.12 148.879 37.52 148.879 33.32V26.48C148.879 18.38 145.759 15.2 140.539 15.2C136.339 15.2 132.019 17.3 127.639 22.7H127.039L127.579 24.68C131.899 19.88 135.799 18.44 138.499 18.44C141.979 18.44 144.019 20.48 144.019 26.36V33.32C144.019 37.52 143.959 44.12 143.839 47ZM166.949 47.9C171.449 47.9 174.089 45.86 177.809 41.78H179.249L178.709 38.96C174.089 43.58 171.749 44.96 169.109 44.96C165.749 44.96 163.469 43.1 163.469 39.32C163.469 36.08 165.449 33.5 170.489 31.64C173.189 30.62 176.669 29.66 179.849 28.82V27.38C176.609 28.1 172.769 29.12 169.409 30.08C161.489 32.42 158.669 35.48 158.669 40.1C158.669 45.14 162.209 47.9 166.949 47.9ZM182.969 47.84C185.309 47.84 187.109 46.88 188.429 44.84L187.469 43.88C186.449 45.02 185.789 45.38 184.769 45.38C183.089 45.38 182.249 44.3 182.249 40.58V25.76C182.249 18.26 178.889 15.2 171.929 15.2C165.149 15.2 160.649 18.14 159.509 23.06C159.809 24.44 160.769 25.16 162.149 25.16C163.589 25.16 164.669 24.44 164.969 22.28L165.989 17.54L163.349 19.16C166.049 17.66 168.269 17.06 170.609 17.06C175.349 17.06 177.449 18.8 177.449 25.46V41.06C177.689 45.32 179.429 47.84 182.969 47.84Z" fill="url(#paint0_linear_84_24)"/>
<defs>
<linearGradient id="paint0_linear_84_24" x1="-49" y1="-11.6488" x2="708.003" y2="-82.5538" gradientUnits="userSpaceOnUse">
<stop stop-color="#FE6459"/>
<stop offset="0.102601" stop-color="#FEDD40" stop-opacity="0.864583"/>
<stop offset="0.1875" stop-color="#53E7AB" stop-opacity="0.713542"/>
<stop offset="0.385417" stop-color="#52DBFF" stop-opacity="0"/>
<stop offset="0.5" stop-color="#6967E2" stop-opacity="0"/>
<stop offset="0.598958" stop-color="#FE58E3" stop-opacity="0"/>
<stop offset="0.75" stop-color="#FE6459" stop-opacity="0"/>
</linearGradient>
</defs>
</svg>
