<svg viewBox="0 0 40 40" fill="none"

    xmlns="http://www.w3.org/2000/svg">
    <style>
         @media (prefers-color-scheme: dark){
            path { fill: black; }
        }
    </style>
    <path d="M32.72 13.328c.022.292.022.582.022.872 0 8.875-6.755 19.102-19.1 19.102a18.969 18.969 0 0 1-10.31-3.015c.54.061 1.06.083 1.622.083a13.45 13.45 0 0 0 8.335-2.868 6.727 6.727 0 0 1-6.279-4.655c.415.061.832.103 1.269.103.601 0 1.206-.083 1.768-.228a6.712 6.712 0 0 1-5.383-6.589v-.083c.895.498 1.933.81 3.033.852a6.704 6.704 0 0 1-2.993-5.59c0-1.247.331-2.39.913-3.387A19.096 19.096 0 0 0 19.46 14.95a7.623 7.623 0 0 1-.166-1.538 6.71 6.71 0 0 1 6.713-6.714c1.933 0 3.678.81 4.905 2.12a13.26 13.26 0 0 0 4.26-1.621 6.7 6.7 0 0 1-2.952 3.7 13.458 13.458 0 0 0 3.865-1.04 14.409 14.409 0 0 1-3.365 3.471Z" 
    fill="#ffffff"></path>
</svg>